<?xml version="1.0" standalone="no"?>
<!DOCTYPE svg PUBLIC "-//W3C//DTD SVG 20010904//EN"
 "http://www.w3.org/TR/2001/REC-SVG-20010904/DTD/svg10.dtd">
<svg version="1.0" xmlns="http://www.w3.org/2000/svg"
 width="800.000000pt" height="800.000000pt" viewBox="-350 0 1200.000000 1200.000000"
 preserveAspectRatio="xMidYMid meet">

<g transform="translate(0.000000,800.000000) scale(0.100000,-0.100000)"
 stroke="none">
<path d="M3975 4946 c-285 -67 -506 -284 -570 -560 -20 -86 -20 -225 0 -301
39 -145 158 -400 310 -660 84 -145 405 -635 415 -635 9 1 289 425 385 585 117
194 272 506 317 635 31 89 33 104 33 225 0 109 -4 141 -23 199 -81 243 -254
417 -490 494 -96 31 -283 40 -377 18z m296 -255 c126 -43 224 -120 283 -221
170 -290 14 -653 -315 -734 -83 -20 -136 -20 -218 0 -95 24 -169 64 -233 128
-198 194 -206 485 -19 688 60 65 113 100 205 134 81 30 218 33 297 5z"/>
<path d="M4054 4539 c-152 -36 -262 -187 -252 -343 18 -277 352 -406 554 -214
206 195 82 541 -203 563 -32 2 -76 0 -99 -6z"/>
<path d="M850 2715 c-241 -44 -456 -218 -551 -444 -41 -99 -63 -220 -56 -313
18 -228 243 -672 627 -1238 58 -85 110 -155 115 -154 14 1 285 406 392 587
181 303 307 576 339 734 54 259 -84 562 -326 718 -164 106 -351 144 -540 110z
m258 -254 c176 -46 311 -182 356 -357 79 -307 -160 -614 -478 -614 -321 0
-560 305 -480 614 45 175 179 310 353 357 86 23 161 23 249 0z"/>
<path d="M864 2289 c-140 -53 -228 -208 -203 -358 42 -261 360 -366 552 -183
171 163 111 459 -109 542 -71 26 -171 26 -240 -1z"/>
<path d="M3395 2565 c-262 -58 -463 -240 -556 -505 -21 -62 -23 -84 -29 -495
-8 -479 -13 -522 -77 -675 -110 -259 -315 -442 -590 -527 l-88 -27 -452 -4
-453 -3 0 -86 0 -85 443 5 c370 4 454 7 517 22 414 94 718 385 827 791 26 98
27 105 33 534 6 410 8 439 28 500 50 150 162 280 297 345 155 75 250 76 573
11 127 -26 236 -45 240 -42 10 6 36 145 29 152 -2 2 -116 27 -253 54 -269 54
-371 61 -489 35z"/>
</g>
</svg>
