<?xml version="1.0" encoding="UTF-8"?>
<svg version="1.1" xmlns="http://www.w3.org/2000/svg" width="235" height="214">
<path d="M0 0 C1.28142883 -0.0049926 1.28142883 -0.0049926 2.58874512 -0.01008606 C4.39428163 -0.01514679 6.19982749 -0.01749465 8.00537109 -0.01733398 C10.77066377 -0.01952287 13.53555903 -0.03769401 16.30078125 -0.05664062 C18.05468613 -0.05957421 19.80859291 -0.06155924 21.5625 -0.0625 C22.80477356 -0.07327827 22.80477356 -0.07327827 24.07214355 -0.08427429 C27.99151182 -0.06863225 29.94607103 -0.0554839 33.28125 2.16796875 C33.136875 2.84859375 32.9925 3.52921875 32.84375 4.23046875 C32.5653125 5.68453125 32.5653125 5.68453125 32.28125 7.16796875 C32.054375 8.32296875 31.8275 9.47796875 31.59375 10.66796875 C31.17459811 15.36246997 32.05720463 17.65887172 34.9921875 21.27734375 C38.62064806 24.27422926 41.88287644 23.77934217 46.421875 23.61328125 C49.50154676 23.33261126 49.50154676 23.33261126 52.46875 21.10546875 C56.3784457 14.76906538 55.20436522 8.22624975 54.28125 1.16796875 C58.19524337 -0.13669571 61.92097005 0.02518635 66 0.03515625 C67.28142883 0.03372116 67.28142883 0.03372116 68.58874512 0.03225708 C70.39428786 0.03157682 72.19983306 0.0334204 74.00537109 0.03759766 C76.77056364 0.04294807 79.53559376 0.03764748 82.30078125 0.03125 C84.05468786 0.03191081 85.80859437 0.03319203 87.5625 0.03515625 C88.39068237 0.03313202 89.21886475 0.03110779 90.07214355 0.02902222 C93.39412382 0.04260559 96.10778425 0.11014683 99.28125 1.16796875 C99.28125 19.31796875 99.28125 37.46796875 99.28125 56.16796875 C62.65125 56.16796875 26.02125 56.16796875 -11.71875 56.16796875 C-11.71875 38.01796875 -11.71875 19.86796875 -11.71875 1.16796875 C-7.8080598 -0.13559465 -4.07674643 0.0054779 0 0 Z " fill="#4E4E4E" transform="translate(69.71875,131.83203125)"/>
<path d="M0 0 C16.83 0 33.66 0 51 0 C51 17.16 51 34.32 51 52 C45.39 52 39.78 52 34 52 C34.268125 53.423125 34.53625 54.84625 34.8125 56.3125 C34.96332031 57.11300781 35.11414062 57.91351563 35.26953125 58.73828125 C36.08794777 61.27230888 37.08859809 62.20900136 39 64 C40.65353883 68.9606165 40.8933248 73.9900192 38.75 78.8125 C34.09090909 84.63636364 34.09090909 84.63636364 30 86 C25.11295408 86.39352617 20.28625152 86.61937593 16 84 C11.26788388 79.48298006 10.20671745 76.51159971 10 70 C10.4375 67 10.4375 67 11 65 C11.66 65 12.32 65 13 65 C13.309375 64.195625 13.61875 63.39125 13.9375 62.5625 C15 60 15 60 16 59 C16 57.02 16 55.04 16 53 C10.72 52.67 5.44 52.34 0 52 C0 34.84 0 17.68 0 0 Z M9 10 C9 20.56 9 31.12 9 42 C19.56 42 30.12 42 41 42 C41.33 31.44 41.66 20.88 42 10 C31.11 10 20.22 10 9 10 Z " fill="#4E4E4E" transform="translate(20,34)"/>
<path d="M0 0 C1.7578125 0.10546875 1.7578125 0.10546875 4 1 C5.47963465 3.09964351 6.68074817 5.0595248 7.875 7.3125 C8.21942139 7.93680908 8.56384277 8.56111816 8.91870117 9.2043457 C11.67283178 14.24369657 14.22349002 19.38154478 16.67578125 24.57421875 C17.92720759 26.8666546 19.13962159 28.21524673 21 30 C21.93547752 31.83754514 22.86511779 33.67848587 23.75390625 35.5390625 C25.80749872 39.59474669 28.17958402 43.46307306 30.51171875 47.36328125 C32 50 32 50 33 53 C33.66 53.33 34.32 53.66 35 54 C35 55.98 35 57.96 35 60 C26.75 60 18.5 60 10 60 C10 62.97 10 65.94 10 69 C10.66 69 11.32 69 12 69 C12 69.66 12 70.32 12 71 C12.99 71.495 12.99 71.495 14 72 C16.3218893 76.64377861 16.04311676 80.03472067 14.76171875 84.8828125 C13.34731 88.81414348 11.37077571 91.17753458 7.8125 93.3125 C2.18489255 94.68813738 -3.85090358 94.94234081 -9 92 C-12.02809954 89.47658371 -13.29024367 87.83407586 -14 84 C-14.08949422 82.48123046 -14.13014855 80.95889529 -14.125 79.4375 C-14.12886719 78.29087891 -14.12886719 78.29087891 -14.1328125 77.12109375 C-14 75 -14 75 -13 72 C-12.34 72 -11.68 72 -11 72 C-9.31598056 69.3055689 -8.7841152 66.95107532 -8.43359375 63.84375 C-8.29050781 62.5753125 -8.14742187 61.306875 -8 60 C-8.96824707 60.05329468 -8.96824707 60.05329468 -9.95605469 60.10766602 C-12.88707336 60.26549415 -15.81848987 60.4140923 -18.75 60.5625 C-20.27367187 60.64661133 -20.27367187 60.64661133 -21.828125 60.73242188 C-23.29765625 60.80493164 -23.29765625 60.80493164 -24.796875 60.87890625 C-25.69760742 60.9260376 -26.59833984 60.97316895 -27.52636719 61.02172852 C-29.87457408 61.00110175 -31.76206702 60.67823071 -34 60 C-33.67 58.35 -33.34 56.7 -33 55 C-32.34 55 -31.68 55 -31 55 C-30.690625 53.824375 -30.690625 53.824375 -30.375 52.625 C-28.50484482 47.69459088 -25.7598161 43.47759637 -23 39 C-17.74183743 30.14974436 -12.55451798 21.23733225 -8 12 C-7.34 12 -6.68 12 -6 12 C-5.87625 11.443125 -5.7525 10.88625 -5.625 10.3125 C-4.94023145 7.77885636 -4.00866237 5.42078968 -3 3 C-2.34 3 -1.68 3 -1 3 C-0.67 2.01 -0.34 1.02 0 0 Z M1 18 C0.731875 18.969375 0.46375 19.93875 0.1875 20.9375 C-0.204375 21.948125 -0.59625 22.95875 -1 24 C-1.99 24.33 -2.98 24.66 -4 25 C-5.00508193 26.87615293 -5.99756341 28.76097151 -6.90234375 30.6875 C-9.82724617 36.84957201 -13.34188321 42.67456057 -17.08203125 48.37109375 C-18.1636518 49.97876825 -18.1636518 49.97876825 -18 52 C-5.46 52 7.08 52 20 52 C19.15034375 48.60137501 18.32160601 46.5289899 16.625 43.5625 C16.17769531 42.77617188 15.73039062 41.98984375 15.26953125 41.1796875 C14.29612222 39.50841907 13.30757567 37.84595945 12.3125 36.1875 C11.09923002 34.16538337 10.02256004 32.12377854 9 30 C8.34 30 7.68 30 7 30 C6.7525 28.948125 6.505 27.89625 6.25 26.8125 C5.23299214 23.1866459 3.54626571 20.80089228 1 18 Z " fill="#4E4E4E" transform="translate(180,26)"/>
<path d="M0 0 C1.20269531 -0.01417969 2.40539062 -0.02835938 3.64453125 -0.04296875 C7.16833425 0.18625328 9.90879528 0.91719021 13.1875 2.1875 C13.1875 2.8475 13.1875 3.5075 13.1875 4.1875 C13.909375 4.414375 14.63125 4.64125 15.375 4.875 C18.81093285 6.47843533 20.758004 8.285602 23.1875 11.1875 C24 14 24 14 24.1875 16.1875 C24.8475 16.1875 25.5075 16.1875 26.1875 16.1875 C27.88173409 22.54087785 27.88173409 29.83412215 26.1875 36.1875 C25.5275 36.1875 24.8675 36.1875 24.1875 36.1875 C24.125625 36.909375 24.06375 37.63125 24 38.375 C22.45749141 43.71445283 17.53492279 46.98413584 13.1875 50.1875 C12.1975 50.5175 11.2075 50.8475 10.1875 51.1875 C9.66548261 57.71271743 10.35704358 60.73200146 14.1875 66.1875 C15.54794273 70.53733662 15.37829864 73.58497797 14 77.9375 C11.63345507 82.18095987 9.84312496 84.63562501 5.1875 86.1875 C0.28925274 86.58192815 -4.4935178 86.77888932 -8.8125 84.1875 C-12.67034381 80.00816921 -13.95765527 76.8818495 -14 71.25 C-14.01417969 70.39535156 -14.02835938 69.54070312 -14.04296875 68.66015625 C-13.79325043 65.98097492 -13.2739606 64.43552744 -11.8125 62.1875 C-10.8225 61.5275 -9.8325 60.8675 -8.8125 60.1875 C-8.23256301 57.99295319 -8.23256301 57.99295319 -8.125 55.5625 C-8.05925781 54.74523437 -7.99351563 53.92796875 -7.92578125 53.0859375 C-7.88839844 52.45945313 -7.85101563 51.83296875 -7.8125 51.1875 C-8.864375 50.960625 -9.91625 50.73375 -11 50.5 C-14.97880167 49.37590766 -17.16935312 47.3913144 -19.8125 44.1875 C-19.8125 43.5275 -19.8125 42.8675 -19.8125 42.1875 C-20.4725 42.1875 -21.1325 42.1875 -21.8125 42.1875 C-25.24107143 34.90178571 -25.24107143 34.90178571 -24.8125 30.1875 C-25.4725 30.1875 -26.1325 30.1875 -26.8125 30.1875 C-27.28401829 22.64320732 -25.17462731 16.39514272 -20.8125 10.1875 C-14.63638818 3.34370042 -9.21278748 0.04905638 0 0 Z M-10.8125 14.1875 C-12.71192124 16.68302137 -12.71192124 16.68302137 -13.8125 19.1875 C-14.1425 19.8475 -14.4725 20.5075 -14.8125 21.1875 C-15.37959328 27.25103588 -15.14655479 31.90857992 -11.8125 37.1875 C-11.1525 37.1875 -10.4925 37.1875 -9.8125 37.1875 C-9.4825 38.1775 -9.1525 39.1675 -8.8125 40.1875 C-3.07926009 42.78110853 1.89733527 42.88619432 7.875 41.0625 C12.24973123 38.58623704 13.98637464 35.58975071 16.1875 31.1875 C16.89255475 26.42838043 17.23686512 22.02906189 14.80078125 17.75390625 C10.41859702 12.57323292 7.10125681 10.46947647 0.3125 9.8125 C-4.35828271 9.94494185 -7.04476915 11.4540482 -10.8125 14.1875 Z " fill="#4E4E4E" transform="translate(112.8125,33.8125)"/>
</svg>
