<?xml version="1.0" encoding="UTF-8"?>
<svg version="1.1" xmlns="http://www.w3.org/2000/svg" width="235" height="214">
<path d="M0 0 C5.85717376 5.44438246 9.25196498 10.57077168 9.9609375 18.56640625 C10.0630234 24.92635797 8.49550893 30.39418409 4.56640625 35.42578125 C1.7865618 38.21949027 -1.45247068 40.30063165 -5 42 C-5.66 42 -6.32 42 -7 42 C-7 47.61 -7 53.22 -7 59 C-5.74703125 58.97679687 -4.4940625 58.95359375 -3.203125 58.9296875 C-1.5520893 58.91092573 0.09895285 58.89272597 1.75 58.875 C2.575 58.85824219 3.4 58.84148437 4.25 58.82421875 C5.04921875 58.81777344 5.8484375 58.81132812 6.671875 58.8046875 C7.4050293 58.79421387 8.13818359 58.78374023 8.89355469 58.77294922 C11.33992539 59.03664008 12.91604264 59.70590223 15 61 C16.25338367 63.50676735 16.14049304 65.23935815 16.16113281 68.04467773 C16.17074036 69.09594345 16.1803479 70.14720917 16.19024658 71.23033142 C16.19449646 72.36990799 16.19874634 73.50948456 16.203125 74.68359375 C16.20882507 75.85003922 16.21452515 77.01648468 16.22039795 78.21827698 C16.22985648 80.68888438 16.2363853 83.15950444 16.24023438 85.63012695 C16.24995089 89.41835386 16.2809715 93.2060409 16.3125 96.99414062 C16.31902869 99.39062177 16.32427969 101.7871068 16.328125 104.18359375 C16.3404718 105.32114609 16.3528186 106.45869843 16.36553955 107.63072205 C16.36253845 108.68513992 16.35953735 109.7395578 16.35644531 110.82592773 C16.36191376 112.21919533 16.36191376 112.21919533 16.36749268 113.64060974 C16 116 16 116 14.80584717 117.79911804 C12.35745648 119.42728916 10.68190665 119.38076746 7.75 119.38818359 C6.67878906 119.39764008 5.60757813 119.40709656 4.50390625 119.4168396 C2.76947266 119.40773056 2.76947266 119.40773056 1 119.3984375 C-0.18722656 119.40130768 -1.37445313 119.40417786 -2.59765625 119.40713501 C-5.10937985 119.40917777 -7.62111928 119.40363322 -10.1328125 119.39111328 C-13.98473572 119.3750636 -17.83560955 119.39095588 -21.6875 119.41015625 C-24.12500232 119.40817386 -26.56250399 119.40433027 -29 119.3984375 C-30.15628906 119.40451019 -31.31257813 119.41058289 -32.50390625 119.4168396 C-33.57511719 119.40738312 -34.64632812 119.39792664 -35.75 119.38818359 C-36.69359375 119.38579681 -37.6371875 119.38341003 -38.609375 119.38095093 C-41 119 -41 119 -42.80485535 117.79812622 C-44.41558691 115.37473868 -44.37428705 113.74330802 -44.37231445 110.84179688 C-44.37854324 109.79060669 -44.38477203 108.7394165 -44.39118958 107.65637207 C-44.38197983 106.52195679 -44.37277008 105.3875415 -44.36328125 104.21875 C-44.36377975 103.05371948 -44.36427826 101.88868896 -44.36479187 100.68835449 C-44.36245002 98.22369685 -44.35271506 95.75903689 -44.33618164 93.29443359 C-44.31259413 89.51508265 -44.31561954 85.73643705 -44.32226562 81.95703125 C-44.31668888 79.56509995 -44.30957903 77.17317162 -44.30078125 74.78125 C-44.30169266 73.64683472 -44.30260406 72.51241943 -44.30354309 71.34362793 C-44.29401108 70.29243774 -44.28447906 69.24124756 -44.2746582 68.15820312 C-44.27005081 67.23237427 -44.26544342 66.30654541 -44.26069641 65.35266113 C-44 63 -44 63 -42 60 C-39.23434618 59.07811539 -37.61716298 58.88214778 -34.76953125 58.90234375 C-33.56586914 58.90717773 -33.56586914 58.90717773 -32.33789062 58.91210938 C-31.08782227 58.92467773 -31.08782227 58.92467773 -29.8125 58.9375 C-28.5450293 58.94426758 -28.5450293 58.94426758 -27.25195312 58.95117188 C-25.16793845 58.96294597 -23.08396023 58.9808811 -21 59 C-21 53.39 -21 47.78 -21 42 C-22.98 41.34 -24.96 40.68 -27 40 C-32.62519026 36.57000594 -35.94898374 31.00064255 -37.60546875 24.6953125 C-38.57622062 18.09419977 -37.46476177 12.7125218 -34.3125 6.875 C-25.49466476 -4.08771408 -12.38362585 -8.12041039 0 0 Z M-23 15 C-24.45147903 17.90295805 -24.37239025 19.77261779 -24 23 C-21.51527166 26.99062431 -20.03251036 28.68655935 -15.5 30.0625 C-10.67991232 29.97642701 -8.52645066 28.52645066 -5.1875 25.1875 C-3.5543784 22.17911811 -3.5257975 20.3871607 -4 17 C-6.2758823 12.77518254 -6.2758823 12.77518254 -10 10 C-16.38289065 9.37217469 -18.83567974 9.69995604 -23 15 Z M-31 73 C-31 83.89 -31 94.78 -31 106 C-19.78 106 -8.56 106 3 106 C3 95.11 3 84.22 3 73 C-8.22 73 -19.44 73 -31 73 Z " fill="#4E4E4E" transform="translate(131,88)"/>
<path d="M0 0 C0.73557129 0.26264648 1.47114258 0.52529297 2.22900391 0.79589844 C10.13861455 3.70024758 17.40644973 6.65161956 24 12 C25.1875 15.5625 25.1875 15.5625 25 19 C23.4375 21.4375 23.4375 21.4375 21 23 C15.64240435 23.66191225 12.10726939 21.78967468 7.5625 19.25 C-12.01401749 8.87387499 -35.70073892 6.90312631 -57 13 C-63.50542288 15.12743225 -69.82918099 17.68048985 -75.734375 21.16015625 C-79.28460509 23.16034569 -81.00651484 23.70995292 -85 23 C-87.4375 21.4375 -87.4375 21.4375 -89 19 C-89.3125 15.625 -89.3125 15.625 -88 12 C-81.75364138 5.69102125 -72.24138441 2.80814563 -64 0 C-62.78183594 -0.41765625 -61.56367187 -0.8353125 -60.30859375 -1.265625 C-41.69149171 -6.90528669 -18.34522493 -6.5737437 0 0 Z " fill="#4E4E4E" transform="translate(149,11)"/>
<path d="M0 0 C3.1780445 2.68870983 3.90774097 3.34265443 4.5 7.5625 C4 11 4 11 2.4375 13 C-1.04235541 14.42763299 -3.33911288 13.75427227 -7 13 C-10.21875 11.4765625 -10.21875 11.4765625 -13.5 9.625 C-27.70940786 2.0601269 -43.51398358 1.234225 -58.96191406 5.32226562 C-63.36786108 6.78739607 -67.45845849 9.05634241 -71.45751953 11.39453125 C-76.04851654 13.97109908 -78.9158804 14.38428999 -84 13 C-86 11 -86 11 -86.375 7.625 C-85.9273703 3.29791285 -85.2426955 2.72900116 -82 0 C-56.93086429 -15.44800795 -25.06913571 -15.44800795 0 0 Z " fill="#4E4E4E" transform="translate(158,44)"/>
<path d="M0 0 C2.45711882 1.67214908 3.86739763 3.02694044 5.34765625 5.59765625 C5.02038352 11.92492898 5.02038352 11.92492898 2.34765625 14.59765625 C-3.33394211 15.39308002 -6.00215622 13.94900656 -10.5 10.91015625 C-18.6858147 5.91844348 -28.67870932 5.18399276 -37.87109375 7.359375 C-42.24347205 8.7284489 -46.26610352 10.10058128 -49.96484375 12.84765625 C-53.44809673 15.11582098 -55.57579317 15.21298464 -59.65234375 14.59765625 C-61.65234375 13.03515625 -61.65234375 13.03515625 -62.65234375 10.59765625 C-62.90234375 7.22265625 -62.90234375 7.22265625 -61.65234375 3.59765625 C-44.94819043 -12.27694544 -18.65253865 -10.06431942 0 0 Z " fill="#4E4E4E" transform="translate(145.65234375,66.40234375)"/>
</svg>
