<?xml version="1.0" encoding="UTF-8"?>
<svg version="1.1" xmlns="http://www.w3.org/2000/svg" width="235" height="214">
<path d="M0 0 C0.78890625 -0.00386719 1.5778125 -0.00773438 2.390625 -0.01171875 C3.21046875 -0.00011719 4.0303125 0.01148437 4.875 0.0234375 C6.10476562 0.00603516 6.10476562 0.00603516 7.359375 -0.01171875 C8.54273437 -0.00591797 8.54273437 -0.00591797 9.75 0 C10.46929687 0.00338379 11.18859375 0.00676758 11.9296875 0.01025391 C14.44524338 0.51222854 15.33218032 1.3780784 16.875 3.3984375 C17.34375 6.4375 17.34375 6.4375 17.375 10.0234375 C17.4059375 11.19132813 17.436875 12.35921875 17.46875 13.5625 C16.89848987 17.24668058 16.3249145 18.49514162 14.39575195 21.49536133 C11.49232525 26.58139254 11.0651276 30.90711685 10.94921875 36.68359375 C10.9119014 37.62528915 10.87458405 38.56698456 10.83613586 39.53721619 C10.72320908 42.51149034 10.64232762 45.48561002 10.5625 48.4609375 C10.49105783 50.49161235 10.41751007 52.52221428 10.34179688 54.55273438 C10.1618567 59.50079268 10.01062349 64.44897432 9.875 69.3984375 C10.58527344 69.38683594 11.29554687 69.37523438 12.02734375 69.36328125 C12.94644531 69.35425781 13.86554688 69.34523438 14.8125 69.3359375 C15.72902344 69.32433594 16.64554687 69.31273438 17.58984375 69.30078125 C19.875 69.3984375 19.875 69.3984375 20.875 70.3984375 C21.48294251 76.47786256 20.09842628 79.46256601 16.875 84.3984375 C17.535 85.0171875 18.195 85.6359375 18.875 86.2734375 C20.875 88.3984375 20.875 88.3984375 20.875 90.3984375 C28.465 90.3984375 36.055 90.3984375 43.875 90.3984375 C44.535 88.7484375 45.195 87.0984375 45.875 85.3984375 C47.0524596 83.25470629 48.2674281 81.13138465 49.5078125 79.0234375 C50.04110672 78.11476929 50.04110672 78.11476929 50.58517456 77.18774414 C51.33835508 75.90594123 52.09320165 74.62511599 52.84960938 73.34521484 C53.97892757 71.43409784 55.10321855 69.52010212 56.2265625 67.60546875 C61.00798428 59.47271573 65.89920678 51.413773 70.875 43.3984375 C74.07567028 43.93868567 76.62751159 44.59851442 79.42578125 46.24609375 C80.04130859 46.60380859 80.65683594 46.96152344 81.29101562 47.33007812 C81.91685547 47.70326172 82.54269531 48.07644531 83.1875 48.4609375 C83.83267578 48.83798828 84.47785156 49.21503906 85.14257812 49.60351562 C86.72378152 50.52881243 88.2999146 51.46276431 89.875 52.3984375 C88.504408 57.06558514 86.57248257 60.8637059 84.03125 65.00390625 C83.66149048 65.6097908 83.29173096 66.21567535 82.9107666 66.83992004 C81.73779961 68.75877065 80.55650005 70.67233197 79.375 72.5859375 C78.58149037 73.88183042 77.78851643 75.17805151 76.99609375 76.47460938 C71.42759424 85.56954613 71.42759424 85.56954613 68.875 89.3984375 C70.74418091 89.41245605 70.74418091 89.41245605 72.65112305 89.42675781 C77.28266908 89.46668615 81.91355287 89.53245313 86.54467773 89.60595703 C88.54752076 89.63415011 90.5504747 89.65537292 92.5534668 89.66943359 C95.43596107 89.69088604 98.31712409 89.73754806 101.19921875 89.7890625 C102.09211105 89.79029114 102.98500336 89.79151978 103.904953 89.79278564 C108.07398244 89.89059425 110.31577554 90.04677368 113.91723633 92.31152344 C117.48298921 96.11250307 117.03527147 99.5614141 117.05200195 104.52905273 C117.05857315 105.36998978 117.06514435 106.21092682 117.07191467 107.0773468 C117.09167996 109.87057584 117.10332208 112.66375083 117.11328125 115.45703125 C117.11735678 116.41233294 117.1214323 117.36763462 117.12563133 118.35188484 C117.14651331 123.41549591 117.16080156 128.47907977 117.17016602 133.54272461 C117.18118958 138.75444127 117.21553625 143.96572614 117.25533772 149.17729092 C117.28159682 153.19841763 117.28986645 157.21944337 117.29344749 161.24064827 C117.29829539 163.16022698 117.30985764 165.07980174 117.32848549 166.99929619 C117.46699025 182.22730684 116.03310174 193.46342738 105.35546875 205.046875 C95.99833197 214.01697693 84.42428425 215.1347678 72.09155273 215.02954102 C70.54113958 215.03469118 68.9907323 215.04198068 67.44033813 215.05122375 C63.26459918 215.06960511 59.08950567 215.05688473 54.91379428 215.03713346 C50.52407113 215.02063795 46.13438537 215.02957477 41.74464417 215.03465271 C34.3769409 215.03916109 27.00949256 215.02338087 19.6418457 214.99536133 C11.14724323 214.96330319 2.65309997 214.9633339 -5.84153515 214.9805761 C-14.04497265 214.9964877 -22.24824323 214.98967869 -30.45167351 214.97263908 C-33.92869499 214.9658012 -37.40558136 214.96676721 -40.88260078 214.97418404 C-44.98277109 214.98189475 -49.08242419 214.9695664 -53.18250656 214.94233513 C-54.67917154 214.93550048 -56.17588528 214.93529991 -57.67254829 214.94255066 C-70.24802484 214.99641429 -80.13606611 212.98371911 -89.89453125 204.68359375 C-98.61523351 195.74907392 -101.25871309 185.24773628 -101.30200195 173.1015625 C-101.30857315 172.29102417 -101.31514435 171.48048584 -101.32191467 170.64538574 C-101.3415271 167.97973523 -101.35327945 165.31414055 -101.36328125 162.6484375 C-101.36735678 161.7346936 -101.3714323 160.82094971 -101.37563133 159.8795166 C-101.39643454 155.04858633 -101.41076443 150.21768403 -101.42016602 145.38671875 C-101.43125519 140.40330322 -101.46570028 135.42033113 -101.50533772 130.43707275 C-101.53148523 126.59715956 -101.53985589 122.75735279 -101.54344749 118.9173584 C-101.54831347 117.08016952 -101.55992778 115.24298539 -101.57848549 113.40588379 C-101.60285132 110.83533383 -101.60191758 108.26594275 -101.5949707 105.6953125 C-101.60778076 104.94084839 -101.62059082 104.18638428 -101.63378906 103.40905762 C-101.58332072 98.27512066 -100.37671574 95.34579439 -97.125 91.3984375 C-94.25481559 89.96334529 -91.78956277 90.28685244 -88.5859375 90.30078125 C-86.63300781 90.30561523 -86.63300781 90.30561523 -84.640625 90.31054688 C-83.26041601 90.31890284 -81.88020768 90.32736779 -80.5 90.3359375 C-79.11198074 90.34095249 -77.72395978 90.3455154 -76.3359375 90.34960938 C-72.93224868 90.36142774 -69.52864561 90.37790316 -66.125 90.3984375 C-67.33929041 87.8071478 -68.57037494 85.22634875 -69.8125 82.6484375 C-70.15216797 81.91882813 -70.49183594 81.18921875 -70.84179688 80.4375 C-74.33521682 73.25476739 -79.06122997 70.3096132 -86 66.5859375 C-94.51182 61.85210883 -101.68162948 56.16544311 -104.71484375 46.5234375 C-106.03354849 39.69129106 -105.44021513 32.90998004 -103.125 26.3984375 C-100.63335808 28.82086714 -98.32305938 31.11842251 -96.3125 33.9609375 C-92.85256815 37.81629013 -89.0169757 40.15261957 -83.78125 40.59765625 C-79.48871732 40.34725851 -77.53178146 39.72894744 -74.125 36.9609375 C-70.45930314 32.2642634 -70.50249676 28.22268013 -71.125 22.3984375 C-72.79106244 17.40025019 -75.66859918 13.34860986 -79.125 9.3984375 C-69.60650674 8.66936142 -62.19592957 10.58872874 -54.75 16.7109375 C-50.00960165 21.18319211 -47.0513383 25.8479024 -46.125 32.3984375 C-46.22788502 38.88019345 -46.78248107 45.31581645 -48.1875 51.6484375 C-50.39202411 61.96650785 -48.5893057 69.0398043 -44.125 78.5234375 C-43.64804687 79.5753125 -43.17109375 80.6271875 -42.6796875 81.7109375 C-41.51122901 84.28154617 -40.32632467 86.84306656 -39.125 89.3984375 C-34.68771849 89.51430505 -30.25082409 89.58557808 -25.8125 89.6484375 C-24.54986328 89.68195313 -23.28722656 89.71546875 -21.98632812 89.75 C-20.77783203 89.76289062 -19.56933594 89.77578125 -18.32421875 89.7890625 C-16.65105591 89.8204834 -16.65105591 89.8204834 -14.9440918 89.85253906 C-12.02043287 89.66392846 -12.02043287 89.66392846 -10.22973633 87.50292969 C-8.94096959 85.48892936 -8.94096959 85.48892936 -9.25 83.3359375 C-9.98558525 81.31584084 -9.98558525 81.31584084 -11.6875 80.1484375 C-14.11878245 77.18861539 -13.3652815 74.1228008 -13.125 70.3984375 C-12.125 69.3984375 -12.125 69.3984375 -9.62109375 69.30078125 C-8.61175781 69.31238281 -7.60242188 69.32398437 -6.5625 69.3359375 C-5.55058594 69.34496094 -4.53867188 69.35398437 -3.49609375 69.36328125 C-2.71363281 69.37488281 -1.93117188 69.38648437 -1.125 69.3984375 C-1.14448363 63.42040184 -1.19639513 57.44382525 -1.27758789 51.46630859 C-1.30069871 49.4354651 -1.31514728 47.40450294 -1.32055664 45.37353516 C-1.32989683 42.4435896 -1.37099789 39.51549293 -1.41796875 36.5859375 C-1.4140361 35.68665527 -1.41010345 34.78737305 -1.40605164 33.86083984 C-1.53525093 28.20243402 -2.59857064 24.73665023 -5.99812317 20.17671204 C-8.0015463 17.01519851 -7.7150689 14.29002121 -7.625 10.5859375 C-7.6146875 9.30074219 -7.604375 8.01554688 -7.59375 6.69140625 C-6.88741663 1.72941433 -4.97973415 0.02342617 0 0 Z M-91.125 112.3984375 C-96.94633461 155.6140989 -96.94633461 155.6140989 -82.375 198.44921875 C-75.61384918 204.30653517 -67.61377363 205.51451388 -58.89680481 205.53887939 C-57.66757294 205.54458954 -56.43834106 205.55029968 -55.17185974 205.55618286 C-53.82266246 205.55742798 -52.47346505 205.55855313 -51.12426758 205.55957031 C-49.69297153 205.56420343 -48.26167671 205.56922875 -46.8303833 205.57461548 C-42.95202498 205.58769486 -39.07368393 205.59417582 -35.19530702 205.59862614 C-32.76797077 205.60156439 -30.34063917 205.60567062 -27.91330528 205.61013031 C-20.30631751 205.62379417 -12.69934044 205.63346597 -5.09234124 205.6373322 C3.66562506 205.64180883 12.42343497 205.65934299 21.18135375 205.6883328 C27.96630708 205.71000613 34.7512166 205.72003951 41.53620416 205.72137332 C45.58138417 205.72241741 49.62641696 205.72824015 53.67156029 205.74619293 C57.48097238 205.7627715 61.2901281 205.76478216 65.0995636 205.75605392 C66.48981734 205.75528872 67.88008542 205.75955725 69.27030373 205.76951218 C79.56458681 205.83884373 90.409018 205.7104408 98.3125 198.2734375 C99.09496094 197.56960937 99.87742188 196.86578125 100.68359375 196.140625 C118.12236292 174.31884968 106.875 129.5616908 106.875 112.3984375 C41.535 112.3984375 -23.805 112.3984375 -91.125 112.3984375 Z " fill="#4E4E4E" transform="translate(105.125,-0.3984375)"/>
<path d="M0 0 C4.929375 -0.0825 9.85875 -0.165 14.9375 -0.25 C16.47398193 -0.28641602 18.01046387 -0.32283203 19.59350586 -0.36035156 C27.0011412 -0.42021124 33.66535418 -0.35400946 40 4 C45.8627445 10.46405163 46.37516147 18.90684666 46.1875 27.29296875 C45.72065657 34.03302077 44.58832521 39.80794778 40 45 C32.34190495 50.28773229 24.47285491 49.45450436 15.5 49.25 C10.385 49.1675 5.27 49.085 0 49 C0 32.83 0 16.66 0 0 Z M16 13 C16 20.59 16 28.18 16 36 C19.63 36 23.26 36 27 36 C28.62200515 34.37799485 28.1299075 32.57976969 28.1328125 30.34375 C28.13410156 29.40402344 28.13539062 28.46429688 28.13671875 27.49609375 C28.13285156 26.50738281 28.12898438 25.51867187 28.125 24.5 C28.12886719 23.51128906 28.13273437 22.52257812 28.13671875 21.50390625 C28.13478516 20.09431641 28.13478516 20.09431641 28.1328125 18.65625 C28.13168457 17.78806641 28.13055664 16.91988281 28.12939453 16.02539062 C28.2241537 14.00395846 28.2241537 14.00395846 27 13 C23.37 13 19.74 13 16 13 Z " fill="#4E4E4E" transform="translate(54,134)"/>
<path d="M0 0 C0.65129883 0.33854004 1.30259766 0.67708008 1.97363281 1.02587891 C12.33631181 6.50717836 22.42808674 12.52895752 32.53808594 18.46044922 C34.70529638 19.69786175 36.87910028 20.85165055 39.125 21.9375 C39.785 20.6175 40.445 19.2975 41.125 17.9375 C41.87265625 18.34742187 42.6203125 18.75734375 43.390625 19.1796875 C44.37546875 19.71851562 45.3603125 20.25734375 46.375 20.8125 C47.83679688 21.61300781 47.83679688 21.61300781 49.328125 22.4296875 C51.57630408 23.64169466 53.8322805 24.81297567 56.125 25.9375 C54.33735391 30.92674953 51.75555614 35.44518694 49.1875 40.0625 C48.74470703 40.87332031 48.30191406 41.68414062 47.84570312 42.51953125 C47.19698242 43.68935547 47.19698242 43.68935547 46.53515625 44.8828125 C45.94939819 45.94266357 45.94939819 45.94266357 45.35180664 47.02392578 C44.125 48.9375 44.125 48.9375 41.125 51.9375 C36.505 49.2975 31.885 46.6575 27.125 43.9375 C27.455 42.2875 27.785 40.6375 28.125 38.9375 C27.06925781 38.35484375 26.01351562 37.7721875 24.92578125 37.171875 C23.42964586 36.34382523 21.93355597 35.51569324 20.4375 34.6875 C19.24072632 34.02717773 19.24072632 34.02717773 18.01977539 33.35351562 C13.50123727 30.85005434 9.01761328 28.30003803 4.5703125 25.671875 C3.65209717 25.13336914 2.73388184 24.59486328 1.7878418 24.04003906 C0.009989 22.99463677 -1.76230684 21.93970875 -3.52807617 20.87402344 C-9.96716274 17.10425146 -16.42647753 13.97528381 -24 15.625 C-27.74987913 16.7770713 -31.31177769 18.30435644 -34.875 19.9375 C-32.64016329 11.22163683 -27.19447622 4.05419546 -19.875 -1.0625 C-13.12678751 -4.86918397 -6.51013384 -3.41455795 0 0 Z " fill="#4E4E4E" transform="translate(178.875,16.0625)"/>
<path d="M0 0 C5.94 0 11.88 0 18 0 C19.32 4.62 20.64 9.24 22 14 C22.9590625 10.8134375 22.9590625 10.8134375 23.9375 7.5625 C25.875 1.125 25.875 1.125 27 0 C29.86267567 -0.07325168 32.700719 -0.09238205 35.5625 -0.0625 C36.36880859 -0.05798828 37.17511719 -0.05347656 38.00585938 -0.04882812 C40.00393756 -0.03700518 42.00197783 -0.01906914 44 0 C43.32480674 4.21797203 41.93986996 7.87007881 40.3125 11.8125 C39.77260325 13.14940298 39.23356928 14.48665465 38.6953125 15.82421875 C37.85447221 17.90293573 37.00874481 19.97897941 36.14746094 22.04931641 C32.34682678 31.21619938 30.22912998 38.91828075 30 49 C24.72 49 19.44 49 14 49 C13.97035156 46.87175781 13.94070312 44.74351562 13.91015625 42.55078125 C13.47175047 33.2961032 10.12717373 25.56820618 6.4375 17.1875 C5.51196093 15.02839051 4.59275994 12.86669757 3.67579651 10.70393372 C3.10908845 9.3734516 2.5362081 8.04557712 1.95640564 6.7207489 C0 2.21415948 0 2.21415948 0 0 Z " fill="#4E4E4E" transform="translate(128,134)"/>
<path d="M0 0 C5.61 0 11.22 0 17 0 C17 16.17 17 32.34 17 49 C11.39 49 5.78 49 0 49 C0 32.83 0 16.66 0 0 Z " fill="#4E4E4E" transform="translate(106,134)"/>
</svg>
