<?xml version="1.0" standalone="no"?>
<!DOCTYPE svg PUBLIC "-//W3C//DTD SVG 20010904//EN"
 "http://www.w3.org/TR/2001/REC-SVG-20010904/DTD/svg10.dtd">
<svg version="1.0" xmlns="http://www.w3.org/2000/svg"
 width="800.000000pt" height="800.000000pt" viewBox="-350 -300 1200.000000 1200.000000"
 preserveAspectRatio="xMidYMid meet">

<g transform="translate(0.000000,800.000000) scale(0.100000,-0.100000)"
fill="#000000" stroke="none">
<path d="M4010 5102 c-36 -9 -87 -30 -115 -46 -69 -39 -3711 -3678 -3725
-3721 -5 -16 -46 -287 -91 -601 -58 -404 -80 -582 -75 -609 10 -51 69 -111
119 -120 45 -9 1176 150 1222 171 17 8 850 834 1852 1836 1376 1377 1831 1837
1857 1882 95 159 83 367 -32 524 -23 33 -170 185 -325 338 -244 242 -291 284
-347 311 -115 55 -221 66 -340 35z m183 -316 c41 -18 583 -562 597 -599 31
-84 6 -128 -169 -302 l-141 -140 -367 368 -368 367 140 141 c77 77 156 149
175 159 42 23 89 25 133 6z m-303 -901 l365 -365 -1525 -1524 -1525 -1525
-424 -60 c-234 -34 -426 -59 -428 -57 -3 2 23 195 57 428 l60 423 1523 1523
c837 837 1524 1522 1527 1522 3 0 169 -164 370 -365z"/>
</g>
</svg>
