<?xml version="1.0" standalone="no"?>
<!DOCTYPE svg PUBLIC "-//W3C//DTD SVG 20010904//EN"
 "http://www.w3.org/TR/2001/REC-SVG-20010904/DTD/svg10.dtd">
<svg version="1.0" xmlns="http://www.w3.org/2000/svg"
 width="200.000000pt" height="200.000000pt" viewBox="-350 -300 1200.000000 1200.000000"
 preserveAspectRatio="xMidYMid meet">

<g transform="translate(0.000000,800.000000) scale(0.100000,-0.100000)"
fill="#000000" stroke="none">
<path d="M2449 5102 c-31 -11 -76 -33 -100 -50 -24 -17 -313 -300 -641 -629
-549 -549 -598 -601 -598 -631 0 -18 5 -43 11 -55 6 -12 93 -104 192 -204 100
-100 179 -184 177 -186 -3 -2 -26 -18 -52 -35 -138 -94 -218 -282 -190 -450
50 -302 377 -481 651 -357 96 44 143 85 216 190 13 19 24 10 202 -167 191
-189 215 -207 270 -193 31 7 494 461 519 507 8 15 14 37 14 50 0 37 -36 87
-67 93 -101 22 -176 74 -216 149 -31 58 -31 184 0 241 48 90 137 144 238 145
136 0 237 -91 270 -243 6 -31 56 -67 93 -67 13 0 35 6 50 14 39 21 509 497
517 524 19 64 23 59 -623 704 -588 587 -620 617 -677 638 -82 31 -184 35 -256
12z m179 -197 c26 -11 208 -187 589 -568 l553 -552 -142 -142 c-79 -79 -145
-143 -148 -143 -3 0 -23 22 -44 50 -172 226 -549 224 -725 -4 -163 -211 -125
-502 89 -668 l35 -28 -137 -137 -138 -138 -207 207 c-115 113 -218 211 -230
217 -40 20 -82 13 -114 -18 -16 -16 -29 -40 -29 -53 0 -53 -32 -131 -71 -173
-112 -122 -291 -120 -399 3 -79 89 -89 210 -27 313 37 62 112 114 180 124 86
13 127 47 127 105 0 39 -21 64 -231 275 l-209 210 552 552 c351 350 566 558
588 567 45 20 91 20 138 1z"/>
<path d="M3420 2689 c-25 -5 -77 -24 -116 -44 -176 -86 -277 -266 -260 -462
l6 -73 -1211 0 c-1322 0 -1253 3 -1278 -57 -9 -21 -11 -254 -9 -903 3 -870 3
-875 24 -920 52 -110 129 -178 236 -212 57 -17 118 -18 1169 -18 l1109 0 32
29 c27 24 33 36 33 71 0 35 -6 47 -33 71 l-32 29 -215 0 -215 0 0 315 c0 338
-2 355 -51 381 -41 21 -71 17 -115 -13 -139 -94 -281 -83 -380 30 -138 156
-41 409 166 434 69 8 108 -2 183 -47 79 -48 122 -52 164 -16 l28 24 3 301 3
301 284 0 c306 0 326 3 351 51 21 42 17 74 -18 137 -29 50 -33 66 -33 132 1
90 21 135 88 197 45 42 121 73 177 73 95 0 201 -72 240 -161 35 -82 30 -153
-15 -246 -40 -83 -40 -104 -1 -150 l24 -28 306 -3 306 -3 0 -784 c0 -529 -3
-793 -11 -812 -14 -38 -57 -83 -96 -99 -23 -10 -79 -14 -194 -14 l-161 0 -35
-35 c-32 -32 -35 -40 -30 -73 4 -24 17 -47 37 -65 l30 -27 169 0 c137 0 181 4
229 18 107 34 184 102 236 212 21 45 21 50 24 920 2 649 0 882 -9 903 -22 54
-43 57 -335 57 -247 0 -266 1 -260 17 11 28 8 179 -4 225 -61 229 -307 382
-540 337z m-960 -970 l0 -191 -22 7 c-46 13 -166 17 -217 6 -82 -17 -157 -58
-225 -121 -108 -101 -151 -211 -144 -365 3 -83 8 -101 42 -170 49 -99 121
-172 220 -221 67 -32 86 -37 168 -41 51 -3 112 0 136 5 l42 10 0 -219 0 -219
-785 0 c-645 0 -791 2 -818 14 -39 16 -82 61 -96 99 -8 19 -11 283 -11 813 l0
784 855 0 855 0 0 -191z"/>
<path d="M3460 188 c-14 -7 -33 -30 -43 -51 -18 -36 -18 -38 0 -75 48 -98 183
-69 183 39 0 71 -77 119 -140 87z"/>
</g>
</svg>
